<svg width="345" height="54" viewBox="0 0 345 54" fill="none" xmlns="http://www.w3.org/2000/svg">
<rect width="345" height="54" rx="10" fill="black"/>
<rect width="24" height="24" transform="translate(109 15)" fill="black"/>
<path d="M130.281 33.424C129.933 34.2275 129.521 34.9672 129.044 35.6472C128.394 36.5743 127.861 37.216 127.451 37.5724C126.815 38.1573 126.134 38.4568 125.404 38.4739C124.88 38.4739 124.248 38.3248 123.513 38.0224C122.775 37.7214 122.097 37.5724 121.477 37.5724C120.827 37.5724 120.129 37.7214 119.384 38.0224C118.636 38.3248 118.035 38.4824 117.575 38.498C116.875 38.5278 116.177 38.2197 115.481 37.5724C115.037 37.1848 114.481 36.5204 113.815 35.5791C113.101 34.5739 112.513 33.4084 112.053 32.0795C111.56 30.6442 111.313 29.2543 111.313 27.9087C111.313 26.3673 111.646 25.0379 112.314 23.9238C112.838 23.029 113.535 22.3231 114.408 21.8049C115.281 21.2867 116.225 21.0227 117.24 21.0058C117.796 21.0058 118.525 21.1777 119.431 21.5156C120.334 21.8546 120.914 22.0265 121.168 22.0265C121.358 22.0265 122.003 21.8255 123.095 21.4247C124.128 21.0531 124.999 20.8992 125.713 20.9598C127.649 21.1159 129.102 21.8788 130.069 23.253C128.338 24.3016 127.482 25.7703 127.499 27.6544C127.515 29.122 128.047 30.3432 129.094 31.3129C129.568 31.7629 130.098 32.1107 130.687 32.3578C130.559 32.7283 130.424 33.0832 130.281 33.424V33.424ZM125.843 15.9601C125.843 17.1104 125.422 18.1844 124.585 19.1785C123.574 20.3602 122.351 21.0431 121.025 20.9354C121.009 20.7974 120.999 20.6521 120.999 20.4995C120.999 19.3953 121.479 18.2135 122.333 17.2472C122.759 16.758 123.301 16.3512 123.959 16.0267C124.615 15.7071 125.235 15.5303 125.818 15.5C125.836 15.6538 125.843 15.8076 125.843 15.9601V15.9601Z" fill="white"/>
<path d="M148.234 32.5L152.336 21.2266H154.227L158.32 32.5H156.484L155.453 29.4531H151.109L150.07 32.5H148.234ZM153.266 23.0938L151.578 28.0469H154.977L153.297 23.0938H153.266ZM159.367 35.2344V24.2812H161.055V25.6953H161.094C161.586 24.7188 162.492 24.125 163.664 24.125C165.758 24.125 167.102 25.7656 167.102 28.3906V28.3984C167.102 31.0156 165.75 32.6641 163.688 32.6641C162.523 32.6641 161.578 32.0703 161.094 31.1172H161.055V35.2344H159.367ZM163.227 31.2109C164.555 31.2109 165.383 30.1328 165.383 28.3984V28.3906C165.383 26.6406 164.547 25.5703 163.227 25.5703C161.945 25.5703 161.047 26.6797 161.047 28.3906V28.3984C161.047 30.1016 161.953 31.2109 163.227 31.2109ZM168.414 35.2344V24.2812H170.102V25.6953H170.141C170.633 24.7188 171.539 24.125 172.711 24.125C174.805 24.125 176.148 25.7656 176.148 28.3906V28.3984C176.148 31.0156 174.797 32.6641 172.734 32.6641C171.57 32.6641 170.625 32.0703 170.141 31.1172H170.102V35.2344H168.414ZM172.273 31.2109C173.602 31.2109 174.43 30.1328 174.43 28.3984V28.3906C174.43 26.6406 173.594 25.5703 172.273 25.5703C170.992 25.5703 170.094 26.6797 170.094 28.3906V28.3984C170.094 30.1016 171 31.2109 172.273 31.2109ZM177.523 32.5V21.2266H179.211V32.5H177.523ZM184.453 32.6641C182.039 32.6641 180.578 31.0156 180.578 28.4219V28.4141C180.578 25.8438 182.062 24.125 184.367 24.125C186.672 24.125 188.086 25.7812 188.086 28.25V28.8203H182.266C182.297 30.375 183.148 31.2812 184.492 31.2812C185.492 31.2812 186.156 30.7656 186.367 30.1484L186.391 30.0859H187.992L187.977 30.1719C187.711 31.4766 186.445 32.6641 184.453 32.6641ZM184.375 25.5078C183.281 25.5078 182.438 26.25 182.289 27.625H186.414C186.273 26.2031 185.477 25.5078 184.375 25.5078ZM192.613 30.868H205.717V31.972H192.613V30.868ZM198.469 27.764H199.797V31.332H198.469V27.764ZM194.197 20.356H204.101V24.74H195.557V27.636H194.245V23.668H202.789V21.428H194.197V20.356ZM194.245 27.076H204.437V28.164H194.245V27.076ZM208.739 20.82H218.051V21.892H208.739V20.82ZM207.331 30.532H220.403V31.636H207.331V30.532ZM217.347 20.82H218.643V22.26C218.643 24.116 218.643 26.18 218.099 29.3L216.771 29.172C217.347 26.212 217.347 24.052 217.347 22.26V20.82ZM232.562 19.3H233.906V29.86H232.562V19.3ZM224.61 32.34H234.338V33.428H224.61V32.34ZM224.61 28.772H225.922V32.708H224.61V28.772ZM226.146 20.292C228.306 20.292 229.906 21.764 229.906 23.86C229.906 25.94 228.306 27.428 226.146 27.428C223.986 27.428 222.37 25.94 222.37 23.86C222.37 21.764 223.986 20.292 226.146 20.292ZM226.146 21.444C224.738 21.444 223.666 22.436 223.666 23.86C223.666 25.268 224.738 26.26 226.146 26.26C227.554 26.26 228.626 25.268 228.626 23.86C228.626 22.436 227.554 21.444 226.146 21.444Z" fill="white"/>
</svg>
